<svg xmlns="http://www.w3.org/2000/svg" width="128" height="128" viewBox="0 0 24 24" fill="none">
  <!-- Main circle background -->
  <circle cx="12" cy="12" r="10" fill="#22c55e"/>
  
  <!-- Continents/landmasses in darker green -->
  <g fill="#16a34a">
    <!-- North America -->
    <path d="M 6 7 Q 5 8, 5.5 9 Q 6 9.5, 5.5 10 Q 5 10.5, 5.5 11.5 Q 6 12, 7 11.5 Q 7.5 11, 8 10.5 Q 8.5 10, 8 9 Q 7.5 8, 7 7 Z"/>
    
    <!-- Europe/Africa -->
    <path d="M 11 6 Q 10.5 6.5, 10.8 7.5 Q 11.2 8, 11.8 7.8 L 12.5 8.5 Q 13 9.5, 12.5 11 Q 12 12, 11.5 12.8 Q 11 13.5, 11.5 14.5 Q 12 15, 12.5 14.5 L 13 14 Q 13.5 13.5, 14 13 Q 14.5 12, 14 11 Q 13.5 10, 13 8.8 Q 12.5 7.5, 12 6.5 Z"/>
    
    <!-- Asia -->
    <path d="M 14.5 7 Q 15 7.5, 15.5 8.5 Q 16 9.5, 16.5 10.5 Q 17 11, 16.5 12 Q 16 12.5, 15.5 12.2 Q 15 11.8, 14.8 11.5 Q 14.5 11, 15 10 Q 15.2 9, 14.8 8 Z"/>
    
    <!-- South America -->
    <path d="M 6.5 14.5 Q 6 15, 6.2 16 Q 6.5 17, 7 18 Q 7.2 18.8, 7.5 18.5 Q 7.8 18, 8 17.5 Q 8.2 16.5, 7.8 15.5 Q 7.5 15, 7 14.8 Z"/>
    
    <!-- Australia -->
    <path d="M 13.5 16.5 Q 14 17, 14.5 17.8 Q 15 18.5, 14.8 19 Q 14.5 19.5, 14 19.3 Q 13.5 19, 13.2 18.5 Q 13 18, 13.3 17.5 Z"/>
  </g>
</svg>
